<svg width="460" height="369" viewBox="0 0 460 369" fill="none" xmlns="http://www.w3.org/2000/svg">
<path d="M108.244 44.3961C109.974 54.1261 118.534 62.0962 118.534 62.0962C118.534 62.0962 130.024 59.9862 136.714 52.7162C142.294 46.6562 142.314 38.3362 137.264 35.0462C130.024 30.3262 123.944 43.5662 123.944 43.5662C123.944 43.5662 125.944 29.1362 117.294 29.2162C111.274 29.2762 106.804 36.2861 108.244 44.3961Z" fill="#B14949"/>
<path d="M4.9536 74.9663C10.9536 79.0563 19.5636 78.6463 19.5636 78.6463C19.5636 78.6463 24.3636 71.4963 23.9736 64.2363C23.6436 58.2363 19.2736 53.9063 14.9736 54.8763C8.76361 56.2563 12.6136 66.2663 12.6136 66.2663C12.6136 66.2663 6.04361 57.7963 1.61361 62.3963C-1.44639 65.5963 -0.0563984 71.5563 4.9536 74.9663Z" fill="#B14949"/>
<path d="M423.033 124.496C422.523 131.746 427.203 138.976 427.203 138.976C427.203 138.976 435.783 139.526 441.863 135.536C446.933 132.206 448.433 126.276 445.423 123.026C441.103 118.356 434.423 126.706 434.423 126.706C434.423 126.706 438.423 116.776 432.253 115.276C427.903 114.236 423.463 118.446 423.033 124.496Z" fill="#B14949"/>
<path d="M444.073 99.906C446.503 104.066 451.753 106.266 451.753 106.266C451.753 106.266 456.653 103.366 458.483 98.916C460.013 95.206 458.623 91.406 455.763 90.756C451.653 89.816 451.103 96.886 451.103 96.886C451.103 96.886 449.593 89.956 445.653 91.446C442.913 92.486 442.053 96.446 444.073 99.906Z" fill="#B14949"/>
<path d="M178.966 138.848C179.196 162.183 184.229 248.378 205.516 272.674C219.847 289.094 262.164 309.586 278.302 313.428C286.127 315.298 310.064 249.39 302.213 245.919C293.684 242.077 252.136 229.436 247.307 225.197C242.479 220.957 220.168 167.345 203.761 138.476C193.886 121.16 178.85 125.707 178.966 138.848Z" fill="#EB9481"/>
<path d="M275.482 312.045C287.752 319.089 336.665 329.642 346.514 330.219C356.363 330.795 384.834 330.398 386.038 322.905C387.242 315.413 378.904 314.849 378.904 314.849C378.904 314.849 392.07 312.775 391.43 305.128C390.918 299.019 379.224 297.623 379.224 297.623C379.224 297.623 393.53 294.588 391.917 287.082C390.457 280.243 377.47 281.959 377.47 281.959C377.47 281.959 389.176 278.207 386.499 271.893C383.271 264.285 363.01 270.778 352.175 269.331C349.715 268.998 295.821 244.049 295.821 244.049L275.482 312.045Z" fill="#EB9481"/>
<path d="M377.742 281.333C362.052 284.637 355.482 285.546 340.599 281.653C340.305 281.576 340.126 281.986 340.42 282.101C354.675 287.224 362.565 286.725 378.036 282.037C378.753 281.806 378.472 281.179 377.742 281.333Z" fill="#263238"/>
<path d="M369.136 327.496C353.204 331.057 345.417 330.237 329.51 327.291C329.46 327.286 329.41 327.299 329.369 327.328C329.328 327.358 329.299 327.401 329.288 327.45C329.277 327.499 329.284 327.55 329.309 327.594C329.333 327.638 329.373 327.671 329.42 327.688C344.789 331.876 353.934 333.631 369.367 327.983C370.071 327.727 369.866 327.342 369.136 327.496Z" fill="#263238"/>
<path d="M295.848 243.998C295.848 243.998 314.33 245.714 323.154 246.098C331.979 246.483 357.005 244.1 361.372 250.299C366.278 257.254 345.273 266.386 329.558 265.835C329.558 265.835 321.182 290.285 306.056 290.464C302.777 290.464 287.152 284.124 285.41 280.794L295.848 243.998Z" fill="#EB9481"/>
<path d="M327.932 266.348C325.012 275.979 317.686 287.006 307.952 289.645C307.891 289.657 307.837 289.692 307.802 289.744C307.767 289.796 307.754 289.859 307.766 289.92C307.778 289.981 307.814 290.035 307.865 290.07C307.917 290.105 307.98 290.118 308.041 290.106C318.813 288.684 327.458 276.017 329.545 267.231C329.955 265.541 328.687 263.85 327.932 266.348Z" fill="#263238"/>
<path d="M294.76 239.861L274.678 315.093C274.678 315.093 213.201 288.415 202.174 271.611C191.146 254.808 177.186 184.43 177.929 145.443C178.672 106.457 202.135 132.725 205.504 139.04C208.872 145.354 247.385 221.995 249.6 223.647C251.816 225.299 294.76 239.861 294.76 239.861Z" fill="#005072"/>
<path d="M277.188 240.246C276.535 242.244 275.715 244.191 275.101 246.215C274.486 248.238 273.897 250.121 273.346 252.093C272.206 256.102 271.117 260.111 270.016 264.12C267.813 272.15 265.649 280.206 263.727 288.313C263.19 290.619 262.652 292.911 262.088 295.217C261.471 297.396 261.018 299.618 260.73 301.864C260.73 301.898 260.744 301.93 260.768 301.954C260.792 301.978 260.825 301.992 260.859 301.992C260.893 301.992 260.925 301.978 260.949 301.954C260.973 301.93 260.987 301.898 260.987 301.864C261.814 299.924 262.495 297.925 263.023 295.883L264.791 290.004C265.994 286.017 267.151 282.025 268.261 278.029C270.439 270.114 272.603 262.211 274.665 254.258C275.237 251.97 275.801 249.673 276.356 247.367C276.894 245.049 277.227 242.705 277.726 240.374C277.765 240.093 277.304 239.901 277.188 240.246Z" fill="#263238"/>
<path d="M234.308 329.336C231.618 332.205 65.9002 330.066 65.0293 328.978C62.6727 326.045 110.394 156.357 149.56 125.938C157.974 119.394 187.65 121.699 191.684 124.081C201.008 129.614 209.32 140.501 215.391 159.943C227.52 198.827 236.652 326.813 234.308 329.336Z" fill="#005072"/>
<path d="M235.229 315.99C235.319 311.674 235.229 307.345 235.114 303.042C234.947 294.486 234.525 285.944 233.987 277.427C232.885 260.252 231.233 243.115 228.864 226.094C227.481 216.488 225.828 206.882 223.741 197.405C223.741 197.367 223.726 197.331 223.699 197.305C223.673 197.279 223.637 197.264 223.6 197.264C223.563 197.264 223.527 197.279 223.5 197.305C223.474 197.331 223.459 197.367 223.459 197.405C225.431 214.426 227.532 231.434 229.184 248.507C230.836 265.58 232.079 282.524 232.847 299.597C233.065 304.387 233.295 309.177 233.462 313.967C233.628 318.757 233.987 323.854 234.115 328.798C234.115 329.362 234.96 329.477 234.96 328.888C235.05 324.597 235.152 320.281 235.229 315.99Z" fill="#263238"/>
<path d="M125.007 158.2C92.3989 221.995 76.6583 312.942 102.581 324.956C127.927 336.662 190.493 304.592 222.973 262.967C228.224 256.243 182.757 211.339 175.674 217.103C165.812 225.133 155.387 239.183 154.311 239.426C151.993 239.926 158.614 180.934 158.525 152.181C158.435 112.093 137.251 134.25 125.007 158.2Z" fill="#EB9481"/>
<path d="M117.22 287.442C118.496 283.611 120.117 279.903 122.061 276.364C123.849 272.798 125.904 269.373 128.209 266.118C135.698 255.849 144.632 246.717 154.734 239.004C154.862 238.914 154.99 239.004 154.875 239.183C153.248 240.669 136.713 257.524 130.54 265.836C128.183 269.012 126.134 272.393 124.136 275.787C122.971 277.721 121.844 279.63 120.781 281.666C119.718 283.703 118.783 285.701 117.656 287.647C117.628 287.705 117.579 287.75 117.519 287.771C117.459 287.793 117.393 287.79 117.335 287.763C117.278 287.735 117.233 287.686 117.211 287.626C117.19 287.566 117.193 287.5 117.22 287.442V287.442Z" fill="#263238"/>
<path d="M172 220.343C172 220.343 188.125 199.851 199.293 187.043C205.53 179.845 217.313 168.485 224.306 165.27C234.77 160.506 281.569 147.263 285.027 158.533C288.152 168.779 271.695 170.662 271.695 170.662C271.695 170.662 289.484 166.82 289.472 177.95C289.459 189.079 267.775 189.477 267.775 189.477C267.775 189.477 286.398 184.149 285.258 195.97C284.272 206.216 259.348 209.418 259.348 209.418C259.348 209.418 278.278 201.733 278.291 212.3C278.291 224.032 241.545 233.496 241.545 233.496C231.709 253.54 220.72 267.18 211.012 275.07C208.643 277.004 172 220.343 172 220.343Z" fill="#EB9481"/>
<path d="M273.474 188.567C271.783 188.67 270.08 188.823 268.351 188.926C265.037 189.087 261.736 189.442 258.463 189.989C255.274 190.565 252.136 191.27 248.999 192.115C245.861 192.96 242.454 194.203 239.124 194.984C239.075 194.998 239.033 195.03 239.008 195.075C238.982 195.119 238.976 195.172 238.989 195.221C239.003 195.27 239.036 195.312 239.08 195.337C239.124 195.362 239.177 195.369 239.226 195.355C242.504 194.54 245.827 193.916 249.178 193.485C252.444 192.948 255.723 192.448 258.989 191.949C262.254 191.449 265.392 190.77 268.517 190.194C270.105 189.899 271.706 189.682 273.307 189.464C274.84 189.353 276.361 189.113 277.854 188.747C277.995 188.747 277.944 188.503 277.854 188.478C276.395 188.353 274.927 188.383 273.474 188.567V188.567Z" fill="#263238"/>
<path d="M275.357 169.983C272.501 169.638 260.103 170.995 256.952 171.52C250.855 172.539 244.875 174.161 239.098 176.362C238.894 176.438 238.983 176.771 239.188 176.733C245.297 175.734 251.394 174.633 257.477 173.544C260.462 173.019 274.05 170.982 275.408 170.624C275.741 170.483 275.664 169.983 275.357 169.983Z" fill="#263238"/>
<path d="M272.166 206.126C269.425 205.934 257.822 207.304 254.889 207.893C249.155 209.411 243.542 211.354 238.098 213.708C237.906 213.81 237.983 214.13 238.2 214.066C243.925 212.568 249.599 210.967 255.388 209.75C258.206 209.148 269.592 207.419 272.23 206.612C272.281 206.59 272.322 206.552 272.349 206.504C272.376 206.455 272.387 206.4 272.38 206.345C272.372 206.291 272.348 206.24 272.309 206.2C272.271 206.161 272.221 206.134 272.166 206.126V206.126Z" fill="#263238"/>
<path d="M168.924 219.779L222.473 279.975C222.473 279.975 183.845 311.379 148.944 327.517C131.705 335.509 112.686 334.971 102.35 328.797C71.0609 310.278 102.516 195.457 121.254 161.235C139.992 127.013 160.663 111.67 160.228 161.696C159.792 211.723 157.039 232.894 157.039 232.894L168.924 219.779Z" fill="#005072"/>
<path d="M209.334 284.266C207.823 282.511 206.453 280.641 204.903 278.912C203.353 277.183 201.88 275.569 200.343 273.93C197.21 270.6 194.055 267.283 190.879 263.978C184.552 257.344 178.186 250.748 171.667 244.344C169.797 242.526 167.927 240.72 166.083 238.888C164.379 237.068 162.538 235.381 160.576 233.842C160.435 233.727 160.294 233.919 160.384 234.047C161.747 235.925 163.245 237.702 164.866 239.362L169.413 244.357C172.487 247.773 175.603 251.124 178.763 254.411C184.974 260.956 191.212 267.475 197.551 273.892C199.383 275.749 201.24 277.567 203.097 279.386C204.954 281.205 207.003 282.87 208.925 284.65C209.142 284.906 209.591 284.573 209.334 284.266Z" fill="#263238"/>
<path d="M119.719 281.281C120.997 277.449 122.622 273.74 124.573 270.203C126.356 266.637 128.407 263.212 130.708 259.956C138.193 249.655 147.127 240.488 157.232 232.74C157.373 232.651 157.489 232.74 157.373 232.92C155.76 234.405 139.212 251.26 133.039 259.572C130.682 262.736 128.633 266.13 126.635 269.511C125.465 271.441 124.342 273.4 123.267 275.39C122.204 277.375 121.269 279.437 120.154 281.384C120.141 281.441 120.105 281.491 120.054 281.523C120.004 281.554 119.943 281.564 119.885 281.55C119.828 281.537 119.778 281.501 119.746 281.45C119.715 281.4 119.705 281.339 119.719 281.281V281.281Z" fill="#263238"/>
<path d="M171.013 221.457C170.375 220.535 169.592 219.722 168.695 219.049C167.926 219.305 159.563 229.295 157.45 232.189C157.988 228.847 158.385 225.209 158.73 221.841C159.038 218.144 159.324 214.442 159.589 210.737C159.998 204.845 160.383 198.928 160.549 193.011C161.33 189.873 161.945 186.697 162.534 183.533C162.534 183.405 162.368 183.354 162.342 183.533C161.74 185.749 161.138 187.99 160.613 190.232C160.613 189.681 160.613 189.13 160.613 188.567C160.613 184.34 160.69 180.101 160.511 175.874C160.502 175.849 160.486 175.826 160.464 175.81C160.442 175.795 160.416 175.786 160.389 175.786C160.362 175.786 160.336 175.795 160.314 175.81C160.292 175.826 160.276 175.849 160.267 175.874C159.063 190.616 158.73 205.421 157.706 220.176C157.424 224.338 156.925 233.24 156.963 233.24C157.001 233.24 168.272 220.509 168.618 220.291C169.36 220.705 170.063 221.185 170.718 221.726C170.859 221.866 171.141 221.674 171.013 221.457Z" fill="#263238"/>
<path d="M104.503 329.412C102.043 327.929 99.8729 326.011 98.0991 323.751C96.4045 321.481 95.0098 319.001 93.9494 316.374C91.7455 310.496 90.4247 304.324 90.0303 298.059C88.6855 283.177 90.4017 268.217 93.0657 253.565C94.577 245.215 96.3957 236.916 97.9966 228.616C97.9966 228.568 97.9804 228.52 97.9505 228.482C97.9206 228.444 97.8788 228.417 97.8317 228.405C97.7846 228.393 97.7349 228.397 97.6905 228.417C97.6461 228.437 97.6096 228.471 97.5868 228.514C95.307 236.48 93.2578 244.536 91.5928 252.669C91.9258 248.186 92.246 243.704 92.6815 239.208C92.6815 239.208 92.579 239.144 92.579 239.208C91.6901 244.501 91.1893 249.852 91.0805 255.218C89.8894 261.378 88.9416 267.59 88.314 273.827C87.5329 281.408 87.4686 289.045 88.1219 296.638C88.5409 303.251 89.9127 309.769 92.1948 315.99C94.4233 321.561 98.3808 327.517 104.426 329.63C104.541 329.63 104.593 329.476 104.503 329.412Z" fill="#263238"/>
<path d="M215.966 271.945C215.467 271.535 215.147 271.945 215.595 272.368C217.926 274.801 219.924 277.26 222.088 279.693C212.086 286.84 202.07 293.974 191.811 300.749C181.309 307.678 170.666 314.364 159.792 320.703C156.795 322.458 153.785 324.174 150.827 325.891C147.82 327.773 144.611 329.311 141.259 330.476C141.131 330.476 141.195 330.706 141.259 330.668C147.228 328.977 152.62 325.891 158.025 322.983C163.43 320.076 168.975 316.874 174.367 313.685C185.262 307.23 195.914 300.374 206.322 293.116C212.15 289.043 218.656 284.535 224.138 280.001C224.355 279.783 218.694 274.225 215.966 271.945Z" fill="#263238"/>
<path d="M186.88 158.597C176.288 159.468 161.085 141.166 156.065 127.436C155.732 126.501 158.447 117.536 161.188 106.495C162.853 99.797 164.544 92.2918 165.594 85.3244C165.812 83.9028 207.654 102.551 207.654 102.551C207.654 102.551 201.161 116.485 199.393 128.64C199.257 129.598 199.214 130.568 199.265 131.534C199.265 131.675 199.265 131.842 199.265 132.021C199.368 137.58 197.126 157.752 186.88 158.597Z" fill="#EB9481"/>
<path d="M168.309 85.9141C168.552 97.9917 171.562 127.539 194.782 131.586C196.269 131.866 197.777 132.012 199.29 132.022C199.309 131.86 199.309 131.697 199.29 131.535C199.258 130.568 199.301 129.6 199.418 128.64C201.186 116.473 207.692 102.538 207.692 102.538C207.692 102.538 177.517 89.0775 168.309 85.9141Z" fill="#263238"/>
<path d="M241.248 30.8926C241.248 30.8926 251.891 41.6254 248.779 55.6754C245.667 69.7253 236.945 82.2 235.523 82.4049C234.101 82.6098 241.248 30.8926 241.248 30.8926Z" fill="#263238"/>
<path d="M178.185 24.1937C168.31 37.3983 160.69 83.1088 167.798 96.4415C178.044 115.819 202.66 126.181 221.065 112.028C238.906 98.3243 247.782 38.6023 239.136 25.6665C226.38 6.6216 192.786 4.68764 178.185 24.1937Z" fill="#EB9481"/>
<path d="M169.436 68.8029C174.469 71.0442 182.384 55.9952 184.805 50.2062C186.956 45.0831 190.722 28.4332 191.119 27.2421C191.516 26.051 212.111 44.955 225.7 42.7009C239.288 40.4468 249.586 29.6883 250.444 24.1811C251.302 18.6738 236.624 2.68985 222.549 0.2564C208.473 -2.17705 187.123 13.5123 187.123 13.5123C187.123 13.5123 194.577 6.51933 194.436 5.82772C194.295 5.13611 184.702 7.71044 182.23 14.0246C182.23 14.0246 185.023 6.05826 184.357 5.82772C183.691 5.59718 175.724 11.732 176.672 17.2393C176.672 17.2393 167.579 23.3742 165.875 31.0844C164.172 38.7946 163.557 66.1261 169.436 68.8029Z" fill="#263238"/>
<path d="M235.512 41.0354C231.273 42.393 227.021 43.9299 222.513 43.9811C217.611 43.8079 212.826 42.4359 208.578 39.9851C204.28 37.6649 200.388 34.6631 197.051 31.0966C194.08 27.9844 191.556 24.3598 188.329 21.5165C187.522 20.7993 186.344 21.9392 186.792 22.7973C191.663 31.7874 199.297 38.972 208.565 43.2895C217.787 47.4904 227.059 46.4402 235.576 41.0994C235.602 41.1122 235.576 41.0098 235.512 41.0354Z" fill="#263238"/>
<path opacity="0.3" d="M237.319 80.7905C233.592 94.5074 228.034 106.726 221.117 112.028C202.713 126.181 178.148 115.871 167.851 96.4414C164.905 90.8957 164.482 79.7914 165.724 67.7138L180.402 59.0303C180.402 59.0303 181.299 71.3768 183.783 74.8349C186.268 78.293 192.825 82.9677 198.205 83.685C203.328 84.3638 211.332 84.8889 213.958 83.3264L218.812 85.1322C218.812 85.1322 221.899 90.0376 225.741 90.1913C229.583 90.3449 232.299 89.6533 234.028 87.3095C235.352 85.2588 236.455 83.0736 237.319 80.7905V80.7905Z" fill="#263238"/>
<path d="M210.307 67.3305C210.307 67.2024 210.038 67.4329 210.025 67.561C209.589 70.6477 208.578 74.1185 205.619 74.6565C205.529 74.6565 205.517 74.8358 205.619 74.8358C209.141 74.9382 210.422 70.3275 210.307 67.3305Z" fill="#263238"/>
<path d="M208.116 63.6794C203.236 62.3986 201.136 72.3117 205.657 73.4388C210.178 74.5659 212.202 64.6656 208.116 63.6794Z" fill="#263238"/>
<path d="M227.788 70.3399C227.788 70.2375 227.993 70.5448 227.968 70.6601C227.225 73.6955 226.879 77.2945 229.428 78.8954C229.504 78.8954 229.428 79.1003 229.428 79.0619C226.098 77.8708 226.597 73.0936 227.788 70.3399Z" fill="#263238"/>
<path d="M231.195 67.7399C236.178 68.4059 234.474 78.3318 229.851 77.7171C225.227 77.1023 227.071 67.1764 231.195 67.7399Z" fill="#263238"/>
<path d="M205.182 58.3144C206.557 58.2116 207.925 58.0321 209.281 57.7765C210.856 57.5588 212.124 57.546 213.366 56.4958C213.671 56.1472 213.855 55.709 213.89 55.247C213.924 54.7851 213.808 54.3244 213.558 53.9342C212.367 52.3077 210.369 52.1027 208.435 52.2949C206.491 52.4028 204.66 53.2451 203.312 54.6515C203.046 54.9918 202.882 55.4012 202.841 55.8314C202.799 56.2617 202.881 56.6948 203.078 57.0798C203.274 57.4648 203.577 57.7856 203.95 58.0043C204.323 58.2231 204.75 58.3307 205.182 58.3144V58.3144Z" fill="#263238"/>
<path d="M236.037 63.5901C234.768 63.0433 233.533 62.4232 232.336 61.733C230.945 61.2796 229.742 60.3791 228.916 59.1715C228.719 58.7325 228.677 58.2393 228.798 57.7736C228.92 57.3078 229.196 56.8973 229.582 56.61C231.247 55.4701 233.194 55.9312 234.923 56.7252C236.693 57.4642 238.126 58.8332 238.945 60.5675C239.126 60.9789 239.181 61.4348 239.102 61.8774C239.024 62.32 238.816 62.7293 238.504 63.0533C238.192 63.3772 237.791 63.6012 237.352 63.6968C236.913 63.7924 236.455 63.7553 236.037 63.5901V63.5901Z" fill="#263238"/>
<path d="M200.585 93.5597C201.174 94.4178 201.687 95.5576 202.775 95.8906C203.916 96.1151 205.091 96.0888 206.22 95.8138C206.244 95.8101 206.268 95.8139 206.29 95.8246C206.311 95.8352 206.329 95.8523 206.34 95.8734C206.351 95.8946 206.356 95.9187 206.353 95.9424C206.349 95.9662 206.339 95.9883 206.323 96.0059C205.759 96.5133 205.069 96.8586 204.324 97.0052C203.58 97.1517 202.81 97.0941 202.096 96.8384C201.506 96.5451 201.017 96.0827 200.691 95.5101C200.365 94.9376 200.216 94.2809 200.265 93.6237C200.265 93.4444 200.508 93.4316 200.585 93.5597Z" fill="#263238"/>
<path d="M205.734 85.0949C206.252 86.4673 207.048 87.7176 208.073 88.7669C209.098 89.8161 210.33 90.6416 211.69 91.1913C212.869 91.6943 214.116 92.0223 215.391 92.1647C215.634 92.1826 215.878 92.1826 216.121 92.1647C216.351 92.1782 216.582 92.1782 216.813 92.1647C216.982 92.1688 217.147 92.117 217.284 92.0175C217.42 91.9179 217.52 91.7761 217.568 91.614V91.614C217.576 91.5074 217.576 91.4004 217.568 91.2938V91.0248C218.132 88.681 218.657 85.0693 218.657 85.0693C219.425 85.6712 223.383 88.5786 223.575 87.3362C225.138 77.0901 226.854 65.5632 226.226 55.0226C226.212 54.9565 226.176 54.8973 226.124 54.8548C226.071 54.8123 226.006 54.7891 225.938 54.7891C225.871 54.7891 225.805 54.8123 225.753 54.8548C225.7 54.8973 225.664 54.9565 225.65 55.0226C223.767 64.8588 223.626 74.9512 221.897 84.8643C220.497 83.799 218.953 82.9367 217.312 82.3028C216.954 82.3028 216.403 89.3214 216.031 90.346C216.034 90.3844 216.034 90.4229 216.031 90.4613C211.971 90.1283 209.243 88.2968 205.977 84.8387C205.888 84.6594 205.606 84.8131 205.734 85.0949Z" fill="#263238"/>
<path d="M214.264 90.6776C212.618 92.0829 210.638 93.0401 208.514 93.4568C207.348 93.6409 206.154 93.4621 205.094 92.9445C202.801 91.7918 203.211 89.5377 204.069 87.719C204.531 86.7525 205.107 85.8452 205.786 85.0166C207.932 87.7641 210.904 89.7487 214.264 90.6776V90.6776Z" fill="#263238"/>
<path d="M208.514 93.4575C207.348 93.6416 206.154 93.4628 205.094 92.9452C202.801 91.7926 203.211 89.5384 204.069 87.7197C206.58 88.5394 208.834 90.8704 208.514 93.4575Z" fill="#FF9CBD"/>
<path d="M176.494 64.7172C176.494 64.7172 171.447 47.4525 163.942 48.7973C156.437 50.1421 156.924 72.8501 163.43 78.1268C164.217 78.865 165.146 79.4358 166.16 79.8047C167.174 80.1737 168.253 80.333 169.33 80.2732C170.408 80.2133 171.462 79.9355 172.429 79.4565C173.396 78.9775 174.256 78.3073 174.957 77.4864L176.494 64.7172Z" fill="#EB9481"/>
<path d="M164.315 55.304C164.292 55.2888 164.263 55.2835 164.235 55.2895C164.207 55.2955 164.183 55.3123 164.168 55.3361C164.153 55.3598 164.148 55.3887 164.154 55.4163C164.16 55.444 164.176 55.4681 164.2 55.4833C168.708 59.3256 169.81 65.1275 170.04 70.8525C169.144 68.3934 167.389 66.626 164.175 67.5994C164.008 67.5994 164.072 67.9067 164.175 67.9196C165.19 67.9365 166.176 68.2685 166.995 68.8696C167.814 69.4707 168.426 70.3112 168.747 71.2751C169.275 72.8888 169.627 74.555 169.797 76.2445C169.887 76.7952 170.809 76.8337 170.809 76.2445V76.1164C173.178 69.4309 171.155 58.3779 164.315 55.304Z" fill="#263238"/>
<path d="M199.42 128.153L189.84 154.294L156.732 122.595L147.959 133.366C147.959 133.366 180.951 184.328 181.08 182.035L191.044 159.442L206.887 174.466L204.441 135.62L199.42 128.153Z" fill="#EBEBEB"/>
<path d="M206.761 155.126C206.146 148.723 205.698 142.319 204.788 135.915C204.788 135.684 204.404 135.595 204.353 135.915C203.251 142.152 205.749 166.653 205.903 172.494H205.826C205.173 171.84 191.174 159.302 191.046 159.507C188.843 163.118 181.53 179.563 181.03 181.062C175.817 172.967 155.863 143.561 149.754 135.941C149.718 135.9 149.668 135.873 149.614 135.866C149.56 135.858 149.505 135.87 149.459 135.899C149.413 135.929 149.378 135.973 149.362 136.025C149.346 136.077 149.348 136.134 149.37 136.184C154.07 144.624 180.454 184.225 180.838 184.072C181.107 184.264 190.2 163.989 191.238 160.185C193.633 162.939 207.811 177.143 207.888 176.195C207.876 169.157 207.5 162.125 206.761 155.126V155.126Z" fill="#263238"/>
<path d="M353.228 51.0767C367.982 68.7768 370.16 95.9034 370.16 95.9034C370.16 95.9034 383.262 124.208 377.55 138.322C375.998 142.332 373.5 145.908 370.269 148.744C367.038 151.581 363.168 153.595 358.991 154.614L361.284 146.698C361.284 146.698 355.098 156.573 337.231 159.122C319.364 161.671 296.759 154.114 285.296 146.903C278.496 142.672 272.91 136.75 269.082 129.716L272.501 141.844C272.501 141.844 255.595 139.667 247.206 120.686C238.817 101.705 270.183 78.421 273.155 73.1186C276.126 67.8162 283.055 27.3441 325.218 38.3587C325.205 38.3971 343.071 38.8838 353.228 51.0767Z" fill="#263238"/>
<path d="M365.266 154.191C370.389 152.346 374.795 147.787 377.689 143.381C380.826 138.744 382.306 133.185 381.89 127.602C381.327 120.891 378.394 114.794 375.486 108.775C372.541 102.589 369.147 96.6076 366.316 90.3703C366.162 90.0373 366.675 89.8067 366.88 90.0885C370.272 94.9099 373.385 99.9216 376.204 105.099C379.157 109.86 381.547 114.949 383.325 120.263C384.966 125.163 385.166 130.43 383.901 135.44C382.666 139.491 380.469 143.182 377.497 146.199C373.975 149.823 369.723 151.975 365.471 154.562C365.446 154.576 365.42 154.584 365.392 154.587C365.364 154.59 365.336 154.588 365.309 154.58C365.283 154.572 365.258 154.56 365.236 154.542C365.214 154.525 365.196 154.503 365.183 154.479C365.169 154.454 365.161 154.428 365.158 154.4C365.154 154.372 365.157 154.344 365.165 154.318C365.172 154.291 365.185 154.266 365.203 154.244C365.22 154.222 365.241 154.204 365.266 154.191V154.191Z" fill="#263238"/>
<path d="M245.325 101.821C251.857 87.3098 266.214 79.0617 275.641 66.7663C280.764 60.1064 284.901 52.5883 291.253 46.9785C291.432 46.8377 291.689 47.1322 291.522 47.2859C286.271 52.409 282.903 58.8128 278.881 64.7811C274.649 70.7382 269.831 76.256 264.498 81.2518C255.059 90.6526 243.762 101.744 244.377 116.153C244.672 122.825 247.874 130.459 254.418 133.148C254.675 133.251 254.418 133.661 254.226 133.533C251.668 132.215 249.404 130.391 247.572 128.172C245.741 125.953 244.379 123.384 243.57 120.622C241.864 114.349 242.487 107.67 245.325 101.821V101.821Z" fill="#263238"/>
<path d="M244.312 105.791C244.388 100.071 246.231 94.515 249.589 89.8843C252.996 85.3375 257.965 82.2765 262.896 79.6381C268.583 76.5643 274.551 73.7082 278.483 68.3802C278.65 68.1625 278.957 68.4443 278.803 68.662C272.528 77.4736 261.859 80.8549 254.187 88.04C245.414 96.2625 244.184 109.313 248.693 120.059C251.571 126.621 255.96 132.409 261.5 136.952C261.515 136.971 261.522 136.994 261.522 137.017C261.521 137.04 261.513 137.063 261.498 137.081C261.483 137.098 261.462 137.111 261.44 137.115C261.417 137.12 261.393 137.117 261.372 137.106C251.907 129.498 243.954 118.471 244.312 105.791Z" fill="#263238"/>
<path d="M361.323 306.461C361.976 306.192 357.8 270.395 357.8 270.395C357.8 270.395 373.528 247.802 367.124 230.025C363.897 221.06 333.62 167.601 319.826 155.6C306.877 144.342 285.463 152.898 277.689 160.518C253.034 184.686 231.287 246.329 216.98 301.684L361.323 306.461Z" fill="#DBDBDB"/>
<path d="M343.622 257.523C336.673 257.755 329.783 258.896 323.13 260.917C316.457 262.8 301.716 268.602 298.014 270.088C297.994 270.088 297.974 270.096 297.96 270.11C297.946 270.124 297.938 270.144 297.938 270.164C297.938 270.185 297.946 270.204 297.96 270.219C297.974 270.233 297.994 270.241 298.014 270.241C302.857 269.12 307.629 267.718 312.308 266.04C318.852 263.812 325.436 261.801 332.134 260.072C335.928 259.136 339.778 258.443 343.661 257.997C343.724 257.992 343.782 257.962 343.823 257.914C343.864 257.866 343.884 257.804 343.879 257.741C343.873 257.678 343.844 257.62 343.796 257.579C343.747 257.538 343.685 257.518 343.622 257.523V257.523Z" fill="#263238"/>
<path d="M355.789 261.045C348.578 260.443 341.318 261.084 334.324 262.941C334.234 262.941 334.26 263.107 334.324 263.094C337.884 262.672 341.432 262.262 345.005 261.954C348.579 261.647 352.19 261.481 355.776 261.237C355.797 261.231 355.815 261.219 355.828 261.203C355.841 261.187 355.849 261.167 355.85 261.146C355.851 261.125 355.846 261.104 355.836 261.086C355.825 261.068 355.808 261.054 355.789 261.045V261.045Z" fill="#263238"/>
<path d="M289.434 158.084C290.164 161.042 304.803 184.98 320.569 181.803C327.178 180.523 322.093 154.907 322.093 154.907L327.754 128.101L293.955 107.225C293.955 107.225 289.152 156.829 289.434 158.084Z" fill="#F0A298"/>
<path d="M327.754 128.115L324.232 144.765C313.232 148.205 301.612 149.193 290.189 147.66C291.47 132.764 293.955 107.188 293.955 107.188L327.754 128.115Z" fill="#263238"/>
<path d="M263.971 86.8999C252.444 130.267 277.125 142.062 286.474 144.534C294.966 146.776 324.167 153.346 340.113 111.401C356.058 69.4559 339.549 50.3853 320.389 44.2249C301.229 38.0644 275.511 43.5333 263.971 86.8999Z" fill="#F0A298"/>
<path d="M273.731 82.4169C274.781 82.4938 275.78 82.4169 276.831 82.4169C277.926 82.5498 279.034 82.3156 279.981 81.7509C280.246 81.5186 280.425 81.2045 280.49 80.8586C280.555 80.5127 280.502 80.155 280.34 79.8426C279.934 79.2676 279.381 78.8122 278.739 78.5239C278.097 78.2355 277.389 78.1248 276.69 78.2032C275.252 78.1143 273.834 78.5718 272.719 79.484C272.476 79.7066 272.303 79.9954 272.222 80.315C272.141 80.6346 272.155 80.9709 272.262 81.2826C272.37 81.5943 272.566 81.8678 272.827 82.0693C273.088 82.2709 273.402 82.3917 273.731 82.4169Z" fill="#263238"/>
<path d="M303.214 92.0614C302.242 91.7108 301.288 91.3089 300.358 90.8575C299.293 90.578 298.351 89.9516 297.681 89.0773C297.523 88.763 297.474 88.405 297.541 88.0596C297.608 87.7142 297.788 87.4009 298.053 87.1689C298.642 86.7855 299.324 86.5667 300.026 86.5352C300.729 86.5037 301.427 86.6606 302.049 86.9896C303.416 87.4654 304.558 88.4334 305.251 89.7048C305.391 90.0031 305.443 90.3358 305.398 90.6625C305.353 90.9893 305.215 91.296 304.999 91.5456C304.783 91.7951 304.5 91.9767 304.183 92.0682C303.866 92.1598 303.53 92.1575 303.214 92.0614V92.0614Z" fill="#263238"/>
<path d="M294.878 98.9265C294.878 98.8241 295.07 99.1186 295.044 99.2467C294.301 102.205 293.955 105.727 296.44 107.303C296.517 107.303 296.44 107.508 296.376 107.469C293.187 106.291 293.674 101.616 294.878 98.9265Z" fill="#263238"/>
<path d="M298.22 96.3909C303.1 97.0569 301.384 106.778 296.863 106.15C292.342 105.523 294.122 95.8145 298.22 96.3909Z" fill="#263238"/>
<path d="M300.076 97.2357C300.832 97.9273 301.498 99.0544 302.497 99.3362C303.496 99.6179 304.738 98.7982 305.686 97.9529C305.775 97.8633 305.852 97.9529 305.827 98.0938C305.532 99.9637 304.469 101.744 302.433 101.667C300.396 101.59 299.551 99.7332 299.41 97.8249C299.333 97.415 299.73 96.9796 300.076 97.2357Z" fill="#263238"/>
<path d="M277.434 94.5199C277.434 94.4046 277.177 94.6223 277.152 94.7504C276.742 97.773 275.769 101.154 272.874 101.718C272.784 101.718 272.759 101.897 272.874 101.897C276.268 101.987 277.523 97.4528 277.434 94.5199Z" fill="#263238"/>
<path d="M275.268 90.9208C270.478 89.7425 268.467 99.3994 272.898 100.488C277.33 101.577 279.276 91.9198 275.268 90.9208Z" fill="#263238"/>
<path d="M273.181 91.1398C272.323 91.4984 271.362 92.2669 270.44 92.1388C269.518 92.0107 268.813 90.7812 268.339 89.6413C268.339 89.5133 268.199 89.5773 268.173 89.6413C267.738 91.4856 267.942 93.4836 269.646 94.2521C271.349 95.0205 272.72 93.5733 273.488 91.8314C273.629 91.5753 273.475 90.9989 273.181 91.1398Z" fill="#263238"/>
<path d="M290.497 122.03C289.677 122.658 288.832 123.529 287.718 123.49C286.592 123.317 285.515 122.911 284.554 122.299C284.535 122.287 284.512 122.282 284.489 122.285C284.466 122.288 284.445 122.298 284.428 122.314C284.412 122.33 284.402 122.352 284.399 122.375C284.396 122.397 284.401 122.421 284.413 122.44C284.767 123.092 285.291 123.635 285.929 124.012C286.568 124.389 287.297 124.585 288.038 124.579C288.677 124.501 289.279 124.234 289.765 123.812C290.251 123.39 290.6 122.832 290.766 122.21C290.843 122.043 290.612 121.941 290.497 122.03Z" fill="#263238"/>
<path d="M279.982 108.826C279.982 108.826 278.522 113.193 278.125 115.306C278.125 115.498 278.586 115.691 279.29 115.87C279.29 115.87 279.29 115.87 279.367 115.87C281.121 116.542 283.025 116.72 284.873 116.384C286.721 116.047 288.44 115.209 289.844 113.962C290.036 113.782 289.844 113.513 289.588 113.603C286.542 114.94 283.147 115.259 279.905 114.512C279.905 113.897 282.659 107.109 282.339 107.02C280.669 106.852 278.983 106.917 277.331 107.212C280.11 98.016 284.349 89.358 286.975 80.1622C286.992 80.0957 286.985 80.0254 286.955 79.9635C286.926 79.9017 286.875 79.852 286.813 79.8232C286.751 79.7944 286.681 79.7881 286.614 79.8056C286.548 79.8231 286.49 79.8631 286.45 79.9188C281.327 88.692 277.933 99.1943 274.821 108.608C274.462 109.786 279.073 109.018 279.982 108.826Z" fill="#263238"/>
<path d="M279.457 115.064C280.274 117.075 281.598 118.84 283.299 120.187C284.248 120.888 285.387 121.286 286.565 121.327C289.127 121.327 289.818 119.175 289.908 117.165C289.945 116.095 289.854 115.024 289.639 113.976C286.45 115.422 282.88 115.803 279.457 115.064Z" fill="#263238"/>
<path d="M283.262 120.199C284.21 120.9 285.349 121.297 286.528 121.339C289.089 121.339 289.781 119.187 289.87 117.176C287.271 116.715 284.184 117.752 283.262 120.199Z" fill="#FF9CBD"/>
<path d="M339.281 119.661C336.643 117.621 334.581 114.929 333.299 111.85C332.016 108.771 331.558 105.412 331.968 102.102C324.715 96.9433 318.968 89.945 315.318 81.8273C315.433 82.8391 316.214 90.0882 316.727 93.764C288.934 82.3012 284.605 58.2997 284.605 58.2997C273.27 65.6897 270.145 71.2994 268.16 74.0018C268.16 74.0018 271.657 56.1992 283.273 46.2221C297.49 34.0164 312.154 39.9592 312.154 39.9592C319.663 39.7239 327.095 41.5174 333.67 45.1507C340.245 48.7841 345.718 54.1229 349.514 60.6051C364.115 85.0676 339.281 119.661 339.281 119.661Z" fill="#263238"/>
<path d="M332.659 109.851C332.659 109.851 344.723 97.7346 350.384 102.269C356.045 106.802 345.261 125.54 337.462 126.987C336.47 127.241 335.438 127.292 334.426 127.136C333.414 126.981 332.445 126.623 331.575 126.083C330.705 125.544 329.954 124.834 329.365 123.997C328.777 123.16 328.364 122.212 328.15 121.211L332.659 109.851Z" fill="#F0A298"/>
<path d="M347.171 107.558C347.198 107.558 347.224 107.569 347.244 107.588C347.263 107.608 347.274 107.634 347.274 107.661C347.274 107.688 347.263 107.714 347.244 107.733C347.224 107.753 347.198 107.763 347.171 107.763C341.651 108.955 338.103 113.258 335.337 117.881C337.207 116.242 339.474 115.563 341.741 117.881C341.856 117.997 341.741 118.189 341.549 118.138C340.694 117.69 339.721 117.518 338.764 117.646C337.807 117.775 336.914 118.197 336.208 118.855C335.034 119.96 333.982 121.188 333.07 122.518C332.75 122.94 331.956 122.518 332.225 122.044C332.249 122.012 332.27 121.977 332.289 121.941C333.288 115.294 339.999 106.995 347.171 107.558Z" fill="#263238"/>
<path d="M326.549 166.461C326.318 169.868 325.499 189.002 330.724 199.991C334.617 208.414 341.608 215.011 350.243 218.408C363.922 223.929 372.016 215.207 366.714 208.226C360.31 199.94 352.92 192.55 349.987 187.004C346.413 180.242 343.685 167.895 342.981 166C341.508 161.978 326.856 162.209 326.549 166.461Z" fill="#F0A298"/>
<path d="M343.137 167.178C344.546 165.807 346.518 160.915 347.735 160.018C348.952 159.122 352.499 157.61 351.193 155.817C349.887 154.024 344.904 156.906 343.777 157.572C342.65 158.238 344.712 145.084 341.6 144.534C338.488 143.983 337.963 153.128 337.335 153.025C336.708 152.923 336.246 143.368 333.493 143.189C330.739 143.01 332.212 153.23 332.02 153.243C331.828 153.256 333.198 145.558 330.854 144.995C328.511 144.431 328.293 154.933 327.819 154.972C327.345 155.01 325.526 149.157 323.26 149.99C320.993 150.822 324.899 159.442 325.129 160.236C325.36 161.03 326 167.523 327.166 168.356C328.331 169.188 342.138 168.164 343.137 167.178Z" fill="#F0A298"/>
<path d="M341.306 159.314C339.242 158.723 337.112 158.396 334.966 158.341C332.798 158.369 330.643 158.692 328.562 159.301C328.409 159.301 328.447 159.596 328.562 159.545C330.634 159.078 332.752 158.846 334.877 158.853C337 158.807 339.121 159.026 341.191 159.506C341.37 159.532 341.421 159.34 341.306 159.314Z" fill="#263238"/>
<path d="M332.096 152.052C332.096 151.398 332.096 150.771 332.096 150.066C332.096 149.362 332.096 148.786 332.096 148.222C332.096 147.659 331.993 147.018 332.019 146.301C332.019 146.083 332.019 146.058 331.929 146.301C331.76 147.545 331.67 148.798 331.66 150.054C331.66 150.694 331.724 151.334 331.763 151.962C331.792 152.648 331.861 153.333 331.968 154.011C331.968 154.101 332.121 154.101 332.121 154.011C332.096 153.332 332.096 152.718 332.096 152.052Z" fill="#263238"/>
<path d="M350.245 218.409C341.61 215.011 334.619 208.414 330.726 199.991C326.755 191.628 326.269 178.564 326.371 171.277L343.905 169.253C345.186 173.864 347.337 181.971 349.989 187.017C352.921 192.55 360.35 199.953 366.715 208.227C372.069 215.207 363.91 223.916 350.245 218.409Z" fill="#37474F"/>
<path d="M372.042 293.204C371.824 294.088 373.745 301.043 372.657 302.413C371.568 303.783 336.001 305.679 335.092 301.043C334.106 296.035 350.333 290.899 349.885 290.066C349.885 290.066 345.197 282.203 343.673 267.935C342.392 256.101 344.083 250.081 350.961 239.758C360.938 224.748 384.453 231.42 384.747 248.032C384.952 258.957 373.22 269.587 372.145 273.75C370.8 279.039 372.106 292.935 372.042 293.204Z" fill="#263238"/>
<path d="M343.188 239.772C343.521 239.08 355.522 241.322 368.573 239.939C384.403 238.261 394.021 233.368 394.521 234.29C396.468 237.8 400.143 250.787 397.082 261.558C394.021 272.329 376.654 276.018 364.807 275.429C352.96 274.839 334.517 268.436 342.714 242.423C342.633 241.513 342.796 240.598 343.188 239.772V239.772Z" fill="#455A64"/>
<path d="M394.853 234.943C377.563 244.382 344.648 241.577 343.188 239.771C343.188 239.771 346.479 214.566 352.319 204.832C353.344 203.142 371.428 199.709 376.82 203.667C386.106 210.455 395.161 234.777 394.853 234.943Z" fill="#455A64"/>
<path d="M365.05 299.891C364.499 300.608 363.538 307.755 362.001 308.587C360.464 309.42 326.998 297.214 327.984 292.591C329.034 287.609 345.915 289.261 345.915 288.313C345.915 288.313 344.698 279.245 348.886 265.515C352.357 254.117 356.263 249.25 366.663 242.462C381.725 232.561 400.732 247.918 394.494 263.312C390.383 273.443 375.424 278.682 372.811 282.037C369.455 286.366 365.19 299.712 365.05 299.891Z" fill="#37474F"/>
<path d="M350.5 202.822C350.5 202.028 346.991 193.856 347.721 193.178C348.451 192.499 364.742 189.771 365.831 191.051C366.92 192.332 369.584 199.902 369.468 201.797C369.353 203.693 357.557 213.49 353.548 212.722C349.54 211.954 350.577 209.021 350.5 202.822Z" fill="#F0A298"/>
<path d="M385.99 203.283C377.024 209.955 366.65 208.764 361.232 207.125C352.831 204.563 331.775 193.869 334.516 177.898C336.386 167.101 350.192 147.083 357.966 143.958C368.802 139.616 388.436 145.738 397.67 159.686C405.099 170.854 394.955 196.546 385.99 203.283Z" fill="#F0A298"/>
<path d="M368.739 168.702C368.224 168.249 367.736 167.766 367.279 167.255C366.693 166.814 366.27 166.193 366.075 165.487C366.059 165.255 366.119 165.025 366.246 164.831C366.373 164.636 366.56 164.489 366.779 164.411C367.247 164.306 367.736 164.334 368.189 164.492C368.641 164.651 369.041 164.933 369.341 165.308C370.059 165.94 370.516 166.816 370.622 167.767C370.642 167.993 370.594 168.221 370.483 168.419C370.372 168.618 370.204 168.778 370.001 168.879C369.797 168.98 369.567 169.018 369.342 168.986C369.117 168.954 368.907 168.855 368.739 168.702Z" fill="#263238"/>
<path d="M349.514 158.52C350.166 158.708 350.829 158.858 351.499 158.968C352.175 159.229 352.919 159.256 353.613 159.045C353.818 158.938 353.983 158.765 354.08 158.554C354.178 158.343 354.202 158.106 354.15 157.879C353.978 157.45 353.695 157.074 353.331 156.788C352.967 156.503 352.534 156.318 352.076 156.253C351.161 155.986 350.18 156.068 349.322 156.483C349.131 156.588 348.976 156.746 348.874 156.938C348.772 157.131 348.729 157.348 348.749 157.565C348.769 157.781 348.853 157.987 348.989 158.157C349.125 158.326 349.307 158.453 349.514 158.52Z" fill="#263238"/>
<path d="M357.494 181.28C357.448 181.574 357.384 181.864 357.302 182.151C356.981 183.303 356.162 185.173 354.266 184.994C353.554 184.9 352.89 184.581 352.371 184.084C351.378 182.993 350.669 181.673 350.309 180.242C351.341 180.967 352.529 181.439 353.777 181.619C355.026 181.799 356.299 181.683 357.494 181.28V181.28Z" fill="#263238"/>
<path d="M357.3 182.15C356.98 183.303 356.16 185.173 354.265 184.994C353.552 184.9 352.888 184.581 352.369 184.084C352.989 183.255 353.854 182.641 354.841 182.33C355.634 182.07 356.478 182.009 357.3 182.15Z" fill="#FF9CBD"/>
<path d="M364.872 170.457C368.035 172.07 364.603 178.269 361.67 176.784C358.737 175.298 362.22 169.112 364.872 170.457Z" fill="#263238"/>
<path d="M350.027 162.874C347.466 161.12 343.79 166.909 346.185 168.523C348.58 170.136 352.115 164.335 350.027 162.874Z" fill="#263238"/>
<path d="M355.855 164.436C353.447 168.086 354.433 166.857 351.872 170.392C350.988 170.033 347.043 168.163 347.158 168.65C347.826 170.523 348.636 172.343 349.579 174.093C348.618 174.926 346.287 175.182 346.339 175.31C348.759 182.572 354.907 182.226 357.328 181.445C357.814 181.291 357.673 181.227 357.405 181.265C355.202 181.598 349.502 180.932 347.735 175.912C348.723 175.641 349.629 175.131 350.373 174.426C350.463 174.349 348.939 171.327 348.465 169.867C349.746 170.379 351.129 171.147 352.025 171.519C352.23 171.608 354.344 168.868 356.201 164.615C356.224 164.57 356.229 164.516 356.213 164.467C356.198 164.418 356.163 164.377 356.117 164.353C356.072 164.329 356.018 164.325 355.969 164.34C355.92 164.356 355.879 164.39 355.855 164.436V164.436Z" fill="#263238"/>
<path d="M406.188 169.599C405.643 168.214 404.763 166.986 403.626 166.025C403.032 165.49 402.384 165.018 401.692 164.617C401.699 164.497 401.699 164.377 401.692 164.258C401.835 163.261 401.895 162.255 401.871 161.248C401.793 159.467 401.553 157.696 401.154 155.959C400.581 152.714 399.459 149.592 397.837 146.724C397.837 146.724 397.709 146.724 397.747 146.724C399.361 149.619 399.668 152.898 400.194 156.1C400.334 157.009 400.463 157.931 400.552 158.866C400.424 158.405 400.283 157.944 400.117 157.483C399.914 156.563 399.658 155.657 399.348 154.768C398.317 151.681 396.63 148.855 394.404 146.481C392.258 144.248 389.564 142.614 386.592 141.742C384.968 141.26 383.312 140.896 381.635 140.654C380.892 140.525 380.162 140.423 379.42 140.333L376.781 140C372.725 139.717 368.765 138.637 365.126 136.824C365.126 136.824 365.126 136.824 365.126 136.824C368.7 138.937 372.696 139.578 376.717 140.167L379.279 140.564C379.996 140.679 380.726 140.794 381.443 140.948C382.16 141.102 382.942 141.243 383.684 141.435C386.842 142.172 389.776 143.657 392.24 145.764C393.978 147.336 395.456 149.173 396.62 151.207C393.403 146.943 388.92 143.805 383.813 142.242C382.929 141.967 382.031 141.741 381.123 141.563C380.419 141.422 379.714 141.307 378.997 141.204C378.28 141.102 377.242 140.999 376.346 140.922C374.937 140.794 373.528 140.692 372.106 140.577C367.649 140.205 363.244 139.296 359.76 136.299C359.76 136.299 359.632 136.299 359.683 136.389C363.858 140.666 370.108 140.974 375.897 141.729C376.781 141.845 377.639 141.96 378.459 142.114C379.099 142.229 379.74 142.344 380.342 142.498H380.457C385.551 143.724 390.212 146.324 393.931 150.016C389.89 146.647 385.09 144.313 379.945 143.215C379.317 143.061 378.664 142.92 378.023 142.805C377.383 142.69 376.358 142.485 375.462 142.37C374.373 142.19 373.233 142.062 372.042 141.96C355.892 140.551 356.968 133.725 356.968 133.725C356.353 135.367 356.186 137.143 356.483 138.871C356.78 140.6 357.531 142.218 358.658 143.561C360.097 145.323 361.868 146.785 363.871 147.864C362.663 148.567 361.623 149.526 360.826 150.675C360.03 151.824 359.495 153.133 359.26 154.511C358.998 155.869 358.998 157.265 359.26 158.623C359.26 158.623 359.26 158.623 359.26 158.623C359.099 157.213 359.216 155.786 359.606 154.422C360.304 151.814 361.912 149.542 364.14 148.018L364.332 148.133C362.237 149.643 360.694 151.798 359.939 154.268C359.408 156.087 359.329 158.008 359.709 159.865C359.709 159.865 361.579 152.475 367.752 152.257C368.08 152.231 368.41 152.231 368.738 152.257H368.93C372.977 152.834 374.783 157.073 377.691 159.839C375.449 158.315 373.976 155.997 371.825 154.319C370.829 153.464 369.575 152.968 368.264 152.91H367.765C367.65 152.898 367.534 152.898 367.419 152.91C366.522 153.074 365.657 153.381 364.857 153.82C362.754 154.887 361.14 156.721 360.349 158.943C360.349 158.943 360.349 158.943 360.413 158.943C361.3 156.781 362.956 155.024 365.062 154.012C365.45 153.833 365.853 153.687 366.266 153.576L366.727 153.474C367.476 153.32 368.251 153.335 368.993 153.519C369.735 153.703 370.427 154.051 371.018 154.537C372.098 155.447 373.101 156.445 374.015 157.521C375.587 159.507 377.713 160.983 380.124 161.761C380.649 161.894 381.185 161.984 381.725 162.029C383.146 162.275 384.604 162.197 385.99 161.799L385.414 162.465C381.139 165.474 377.936 169.768 376.269 174.722C374.922 179.07 374.837 183.712 376.026 188.106C376.428 189.649 376.977 191.15 377.665 192.588C377.755 192.793 377.857 192.986 377.959 193.178C378.011 193.301 378.071 193.421 378.139 193.536C378.139 193.536 378.292 193.536 378.254 193.536L378.062 193.114C377.959 192.896 377.87 192.678 377.78 192.46C377.101 190.867 376.595 189.205 376.269 187.504C375.489 183.112 375.873 178.592 377.383 174.394C378.893 170.197 381.476 166.468 384.876 163.579L384.389 164.22C380.982 167.87 377.985 171.904 377.153 176.95C376.648 180.032 377.208 183.195 378.741 185.916L379.023 186.364C379.766 187.521 380.583 188.629 381.469 189.681L381.751 190.027L381.866 190.309L382.404 191.525C382.481 191.705 382.557 191.858 382.634 192.025C383.672 194.369 384.671 196.482 385.285 198.057C385.592 198.749 385.795 199.483 385.887 200.235C385.95 201.053 385.816 201.875 385.495 202.63C385.174 203.386 384.676 204.053 384.043 204.576C384.376 204.576 390.37 203.462 395.263 196.149C395.429 195.918 395.57 195.688 395.724 195.445C397.625 193.311 399.311 190.994 400.757 188.528C403.588 183.687 406.328 177.501 405.445 171.763C405.197 170.202 404.597 168.717 403.69 167.421C404.55 168.257 405.276 169.22 405.842 170.278C407.122 172.839 407.122 175.785 407.187 178.551C407.44 175.531 407.101 172.489 406.188 169.599V169.599ZM379.484 186.121C379.449 186.072 379.419 186.021 379.394 185.967C378.103 183.166 377.714 180.033 378.28 177.002C378.837 173.599 380.15 170.365 382.122 167.537C380.298 170.389 379.09 173.591 378.574 176.938C378.456 180.004 378.993 183.06 380.15 185.903C380.521 186.966 380.931 188.042 381.366 189.092C380.659 188.154 380.029 187.161 379.484 186.121V186.121ZM404.663 174.594C404.361 178.222 403.383 181.762 401.782 185.032C400.877 187.007 399.819 188.909 398.618 190.719C405.291 178.603 404.394 171.02 403.088 167.37C404.232 169.576 404.767 172.048 404.638 174.53L404.663 174.594Z" fill="#263238"/>
<path d="M376.335 187.733C376.335 187.733 384.763 182.61 389.284 184.916C394.074 187.4 390.18 196.442 384.968 198.146C378.858 200.131 373.953 195.315 373.953 195.315L376.335 187.733Z" fill="#F0A298"/>
<path d="M385.018 189.092C386.039 188.863 387.084 188.76 388.13 188.785C388.245 188.785 388.258 188.592 388.13 188.567C384.006 188.029 378.921 189.848 377.205 193.92C377.205 194.061 377.333 194.189 377.436 194.074C377.538 193.959 377.999 193.498 378.268 193.203C379.313 192.548 380.489 192.133 381.713 191.986C382.986 191.916 384.255 192.185 385.389 192.768C385.517 192.832 385.607 192.64 385.479 192.563C384.653 192.025 383.722 191.67 382.748 191.522C381.773 191.374 380.779 191.436 379.831 191.705C380.597 191.008 381.459 190.426 382.392 189.976C383.212 189.591 384.071 189.295 384.954 189.092H385.018Z" fill="#263238"/>
<path d="M374.988 195.7C374.988 195.7 375.013 195.713 374.988 195.7V195.7Z" fill="#263238"/>
<path d="M342.7 159.98C341.419 162.03 340.228 164.117 339.14 166.269C338.031 168.402 337.064 170.605 336.245 172.865C334.446 177.286 334.282 182.205 335.784 186.736C336.556 188.969 337.728 191.044 339.242 192.858C340.776 194.68 342.517 196.317 344.429 197.737C346.338 199.172 348.412 200.44 350.398 201.823C351.396 202.517 352.346 203.279 353.241 204.103C354.154 204.916 354.846 205.947 355.252 207.1C354.278 204.833 352.114 203.501 350.129 202.22C348.143 200.939 346.005 199.735 343.994 198.378C339.857 195.654 336.67 191.71 334.875 187.094C333.343 182.355 333.585 177.222 335.553 172.647C337.388 168.139 339.79 163.882 342.7 159.98V159.98Z" fill="#263238"/>
<path d="M315.817 222.494C318.379 224.364 332.813 235.878 343.994 237.21C355.867 238.632 366.574 232.599 370.595 229.705C381.636 221.751 373.554 210.762 365.472 211.505C355.867 212.389 349.104 216.231 343.328 215.783C336.284 215.232 325.397 209.84 323.553 209.456C319.685 208.662 312.654 220.214 315.817 222.494Z" fill="#F0A298"/>
<path d="M324.553 209.955C324.169 208.175 321.313 204.23 321.223 202.847C321.133 201.464 321.697 197.942 319.648 198.07C317.598 198.198 317.393 203.513 317.368 204.73C317.342 205.947 308.082 197.839 306.123 200.004C304.163 202.168 311.028 207.061 310.644 207.509C310.26 207.957 302.575 203.603 301.102 205.639C299.629 207.676 308.3 211.569 308.223 211.736C308.146 211.902 302.844 207.061 301.205 208.585C299.565 210.109 307.698 215.488 307.493 215.872C307.288 216.257 301.832 214.797 301.371 216.974C300.91 219.151 309.555 220.342 310.336 220.56C311.118 220.778 316.458 223.48 317.675 222.981C318.892 222.481 324.822 211.223 324.553 209.955Z" fill="#F0A298"/>
<path d="M302.716 208.278C302.588 208.201 302.498 208.278 302.614 208.367C304.875 210.153 307.427 211.535 310.157 212.453C310.157 212.453 310.157 212.453 310.157 212.453C308.953 211.736 304.099 209.149 302.716 208.278Z" fill="#263238"/>
<path d="M370.52 229.73C366.499 232.651 355.792 238.696 343.919 237.248C335.312 236.211 324.554 228.834 318.982 225.184L326.103 210.25C330.228 211.531 337.874 215.373 343.266 215.809C349.029 216.257 355.817 212.427 365.41 211.556C373.543 210.801 381.612 221.79 370.52 229.73Z" fill="#37474F"/>
<path d="M289.986 186.888C288.884 201.425 278.062 307.498 279.189 312.685C279.189 312.685 228.151 357.294 212.077 326.479C201.639 306.46 242.136 206.855 265.485 175.028C276.205 160.402 292.291 156.38 289.986 186.888Z" fill="#F0A298"/>
<path d="M226.1 236.583L287.576 231.46C289.991 215.812 291.471 200.035 292.008 184.212C292.968 157.393 280.647 151.655 258.4 180.191C245.017 197.363 234.142 216.35 226.1 236.583V236.583Z" fill="#DBDBDB"/>
<path d="M286.833 222.404C282.235 222.263 277.586 222.813 273.001 223.07C268.621 223.3 264.228 223.543 259.86 223.928C250.775 224.722 241.725 225.704 232.708 226.873C232.542 226.873 232.554 227.155 232.708 227.142C241.673 226.681 250.639 226.105 259.604 225.413C264.074 225.068 268.569 224.606 272.975 224.133C277.381 223.659 282.235 223.505 286.769 222.685C287 222.647 287 222.404 286.833 222.404Z" fill="#263238"/>
<path d="M289.294 225.247C289.653 223.031 289.922 220.803 290.165 218.562L290.319 217.178C291.23 214.517 292.004 211.811 292.637 209.071C292.637 208.969 292.522 208.917 292.483 209.071C291.715 211.082 291.1 213.157 290.524 215.244C290.912 211.821 291.121 208.38 291.151 204.934C291.145 204.918 291.133 204.903 291.119 204.893C291.104 204.883 291.086 204.878 291.068 204.878C291.05 204.878 291.033 204.883 291.018 204.893C291.003 204.903 290.992 204.918 290.985 204.934C290.204 209.379 289.704 213.9 289.102 218.331C288.795 220.496 287.565 231.139 287.437 231.139C286.798 231.19 286.164 231.292 285.542 231.446C285.196 231.6 285.414 231.638 285.542 231.638C285.67 231.638 288.308 231.766 288.308 231.766C288.308 231.766 289 227.156 289.294 225.247Z" fill="#263238"/>
<path d="M410.621 216.859C411.793 218.038 412.552 219.565 412.783 221.212C413.014 222.858 412.704 224.535 411.901 225.991C411.901 225.991 419.266 224.851 422.621 230.051C424.35 232.728 421.597 237.838 421.597 237.838C421.597 237.838 427.539 237.172 430.242 241.988C432.394 245.83 429.307 250.364 429.307 250.364C429.307 250.364 435.301 252.387 436.236 256.998C438.144 266.335 407.38 288.185 394.585 280.218C388.617 276.517 396.43 271.586 396.43 271.586C396.43 271.586 383.494 275.966 378.819 269.729C374.144 263.492 384.608 257.715 384.608 257.715C384.608 257.715 372.031 261.839 367.856 254.898C363.488 247.674 375.015 243.678 375.015 243.678C375.015 243.678 364.884 243.909 362.899 237.851C359.608 227.861 383.046 226.567 388.668 220.163L381.317 208.765C381.317 208.765 406.099 211.877 410.621 216.859Z" fill="#F0A298"/>
<path d="M428.871 251.157C428.891 251.145 428.914 251.14 428.937 251.142C428.959 251.145 428.981 251.155 428.997 251.172C429.013 251.188 429.024 251.209 429.026 251.232C429.029 251.255 429.024 251.278 429.012 251.298C420.648 260.942 408.52 268.985 395.981 271.905C395.571 272.008 395.238 271.38 395.661 271.188C407.982 265.706 418.484 259.853 428.871 251.157Z" fill="#263238"/>
<path d="M421.75 237.863C421.866 237.761 422.019 237.953 421.917 238.068C413.233 247.968 399.298 256.639 384.48 258.317C383.968 258.317 383.455 257.92 384.045 257.805C393.791 255.883 412.426 245.676 421.75 237.863Z" fill="#263238"/>
<path d="M373.926 243.461C388.014 241.31 400.105 234.842 411.516 226.414C411.657 226.312 411.798 226.53 411.695 226.658C407.238 232.293 399.413 236.904 393.022 239.978C387.138 242.942 380.581 244.315 374.003 243.961C373.734 243.948 373.618 243.512 373.926 243.461Z" fill="#263238"/>
<path d="M318.724 339.94C344.263 337.609 371.363 331.513 391.523 313.915C393.814 312.013 395.402 309.397 396.031 306.487C405.214 298.802 404.318 292.091 404.318 292.091C410.657 282.28 408.813 275.595 408.813 275.595C408.813 275.595 419.495 266.399 414.999 259.022C410.004 250.735 395.98 265.272 383.377 268.55C354.521 276.056 311.385 278.668 302.855 280L318.724 339.94Z" fill="#F0A298"/>
<path d="M358.673 297.676C367.126 295.293 375.477 293.18 383.571 289.671C392.434 285.829 400.324 280.616 408.495 275.583C408.545 275.554 408.603 275.545 408.658 275.557C408.714 275.569 408.764 275.601 408.797 275.647C408.83 275.693 408.846 275.75 408.839 275.807C408.833 275.863 408.807 275.916 408.764 275.954C395.444 287.481 376.194 295.691 358.814 298.111C358.353 298.124 358.251 297.804 358.673 297.676Z" fill="#263238"/>
<path d="M348.028 275.403C343.878 274.89 344.122 272.713 350.474 268.871C356.827 265.028 385.247 255.205 380.982 245.548C376.717 235.891 336.834 250.351 326.742 257.561C316.649 264.772 302.855 279.962 302.855 279.962C311.18 278.758 331.66 277.644 348.028 275.403Z" fill="#F0A298"/>
<path d="M355.238 245.548C359.27 243.987 363.45 242.837 367.713 242.115C369.862 241.719 372.047 241.547 374.232 241.603C375.361 241.629 376.483 241.788 377.575 242.077C378.749 242.361 379.825 242.959 380.687 243.806C381.553 244.74 382.013 245.978 381.968 247.251C381.918 248.445 381.57 249.607 380.956 250.632C379.775 252.529 378.251 254.188 376.461 255.525C373.041 258.183 369.275 260.363 365.267 262.005C367.111 260.904 368.942 259.79 370.697 258.56C372.464 257.395 374.15 256.111 375.743 254.718C377.333 253.386 378.688 251.797 379.752 250.018C380.233 249.185 380.505 248.249 380.546 247.289C380.583 246.387 380.261 245.508 379.65 244.843C378.369 243.562 376.217 243.14 374.181 243.025C372.073 242.927 369.961 243.009 367.867 243.268C365.753 243.486 363.653 243.844 361.552 244.254C359.452 244.664 357.339 245.01 355.238 245.548Z" fill="#263238"/>
<path d="M378.74 269.691C381.156 269.138 383.528 268.406 385.836 267.501C388.092 266.503 390.286 265.369 392.406 264.107C394.558 262.826 396.735 261.648 398.925 260.482C401.115 259.317 403.254 258.1 405.598 257.037C406.781 256.507 408.03 256.141 409.312 255.949C410.65 255.727 412.022 255.855 413.295 256.32C413.949 256.572 414.545 256.955 415.045 257.446C415.545 257.938 415.939 258.526 416.203 259.176C416.683 260.428 416.854 261.776 416.702 263.108C416.434 265.671 415.532 268.128 414.076 270.255C412.674 272.352 410.945 274.212 408.953 275.762L409.017 275.531C409.226 276.369 409.312 277.231 409.274 278.093C409.245 278.959 409.116 279.818 408.889 280.654C409.024 279.808 409.076 278.95 409.043 278.093C409.018 277.254 408.88 276.423 408.633 275.621V275.493L408.749 275.391C410.57 273.745 412.152 271.852 413.449 269.768C414.71 267.711 415.469 265.385 415.665 262.98C415.788 261.832 415.63 260.672 415.204 259.599C414.994 259.097 414.684 258.643 414.292 258.266C413.9 257.889 413.434 257.597 412.924 257.409C410.811 256.64 408.339 257.268 406.136 258.139C401.704 260.175 397.35 262.673 392.905 264.888C390.709 266.077 388.437 267.121 386.105 268.013C383.705 268.791 381.24 269.353 378.74 269.691V269.691Z" fill="#263238"/>
<path d="M302.177 279.642C310.349 280.628 346.812 331.026 335.388 335.009C281.596 353.734 233.298 343.872 223.065 339.197C209.642 333.062 207.772 314.735 212.972 306.602C220.516 294.806 294.096 278.656 302.177 279.642Z" fill="#F0A298"/>
<path d="M238.871 293.23C266.19 280.999 302.781 279.142 302.909 279.142C303.447 279.001 304.267 279.898 303.959 279.987C298.298 281.499 260.055 287.044 239.332 293.96C239.076 293.973 238.679 293.307 238.871 293.23Z" fill="#263238"/>
</svg>
