<svg width="465" height="79" viewBox="0 0 465 79" fill="none" xmlns="http://www.w3.org/2000/svg">
<path d="M422.788 59.752C421.068 53.8575 419.059 47.3155 421.671 41.4099C424.083 35.9619 428.369 30.5698 434.61 29.6321C436.385 29.3641 437.557 29.4981 437.289 31.5411C436.876 34.6669 434.297 37.6477 432.601 40.1595C430.37 43.3796 428.448 46.8036 426.862 50.3856C425.746 52.9086 424.942 55.5433 423.915 58.0998C423.792 58.4235 423.669 58.7473 423.524 59.0598C423.524 59.1826 423.424 59.3055 423.368 59.4283C423.363 59.484 423.363 59.54 423.368 59.5957C423.379 59.6443 423.379 59.6947 423.367 59.7431C423.356 59.7915 423.333 59.8366 423.301 59.8748C423.277 59.9065 423.246 59.9331 423.212 59.953C423.171 59.9688 423.127 59.9761 423.083 59.9745C423.039 59.9728 422.996 59.9623 422.957 59.9435C422.917 59.9247 422.881 59.8981 422.852 59.8651C422.823 59.8322 422.801 59.7937 422.788 59.752V59.752Z" fill="#8AD0EA"/>
<path d="M423.257 59.9527C422.018 54.6946 420.355 49.1127 422.855 44.0331C424.067 41.6865 425.642 39.5464 427.522 37.6921C428.359 36.8436 430.871 34.2871 432.188 34.7448C434.644 35.571 427.611 43.9661 426.997 45.0379C424.863 49.0541 423.802 53.553 423.916 58.0995C423.793 58.4233 423.67 58.747 423.525 59.0596C423.376 55.8494 423.753 52.6364 424.642 49.5481C425.914 45.2835 428.672 42.392 430.994 38.7191C431.496 37.9265 433.226 35.4705 431.675 35.1021C430.648 34.8676 428.214 37.3349 427.7 37.8707C425.919 39.6372 424.413 41.6619 423.235 43.8768C420.645 48.9675 422.197 54.5494 423.313 59.8746C423.299 59.9034 423.28 59.9298 423.257 59.9527V59.9527Z" fill="white"/>
<path d="M419.985 63.9492H419.259C419.23 63.951 419.201 63.9447 419.176 63.9308C419.15 63.917 419.129 63.8963 419.114 63.8711C419.073 63.8227 419.051 63.7614 419.051 63.698C419.051 63.6347 419.073 63.5734 419.114 63.525C419.137 63.5133 419.161 63.5072 419.187 63.5072C419.212 63.5072 419.237 63.5133 419.259 63.525H419.594H419.661C423.323 61.4709 427.32 60.0307 430.97 57.9431C434.621 55.8555 437.814 53.6897 441.464 51.9593C443.753 50.8429 455.464 46.1206 455.307 51.8477C455.229 54.3819 452.215 56.8714 450.384 58.2892C447.919 60.1651 445.136 61.5797 442.167 62.4645C434.877 64.7196 427.454 63.659 419.985 63.9492Z" fill="#8AD0EA"/>
<path d="M435.525 61.8394C438.326 61.2573 441.026 60.2681 443.541 58.9033C444.411 58.4344 448.587 56.1458 448.095 54.661C447.783 53.7009 445.807 54.0247 445.159 54.1028C442.368 54.4377 439.834 56.0119 437.345 57.1952C432.264 59.597 427.014 61.6231 421.637 63.2572L420.521 63.3799C420.231 63.3799 419.929 63.4469 419.639 63.4916H419.337H419.103C419.061 63.5371 419.037 63.5969 419.037 63.659C419.037 63.7212 419.061 63.7811 419.103 63.8265L419.784 63.7595L419.248 63.9158H419.84H419.974L420.878 63.6702C425.793 63.3528 430.684 62.7414 435.525 61.8394V61.8394ZM422.821 63.1343C425.969 62.1854 429.061 61.069 432.098 59.7852C434.543 58.7805 436.943 57.6641 439.321 56.5031C440.641 55.7954 442.019 55.2015 443.44 54.728C444.557 54.4042 448.665 53.5335 446.667 56.2798C445.204 58.2669 441.386 59.6289 439.164 60.3769C436.701 61.1952 434.167 61.7857 431.595 62.1408C428.693 62.5985 425.746 62.8441 422.821 63.1343V63.1343Z" fill="white"/>
<path d="M404.478 71.2735C404.478 71.173 404.4 71.0725 404.389 71.0614C403.272 65.5576 400.95 58.4351 403.406 53.0095C405.226 48.9905 409.647 44.3799 414.369 44.3129C419.694 44.2459 415.374 52.5518 414.369 54.7176C411.48 60.4252 408.275 65.9674 404.768 71.3181C404.768 71.3181 404.768 71.3181 404.69 71.4074C404.612 71.4968 404.534 71.4186 404.478 71.2735Z" fill="#8AD0EA"/>
<path d="M404.679 71.4175C404.791 71.0602 404.914 70.703 405.037 70.3011C406.376 66.1593 407.906 62.0622 409.636 58.0209C410.06 57.005 413.968 49.5141 411.791 49.0899C410.462 48.8331 408.576 51.4566 407.928 52.3162C406.771 53.8432 405.877 55.5524 405.282 57.3734C403.943 61.571 404.568 66.0923 404.512 70.4685C404.523 70.6731 404.523 70.8781 404.512 71.0826V71.2054C404.534 71.4175 404.612 71.4845 404.679 71.4175ZM405.059 59.8853C405.409 57.9562 406.081 56.0995 407.046 54.3927C407.682 53.2763 410.127 49.2127 411.679 49.7374C412.505 50.0053 412.215 50.4853 412.014 51.4566C411.92 51.9033 411.797 52.3433 411.646 52.7739C411.277 53.8345 410.786 54.8504 410.328 55.8774C409.502 57.6748 408.732 59.4722 407.995 61.3031C406.789 64.295 405.762 67.3315 404.735 70.4127C404.914 66.885 404.445 63.3461 405.037 59.8853H405.059Z" fill="white"/>
<path d="M418.188 78.3842C411.597 78.5327 405.112 76.7179 399.555 73.1707L399.466 73.0814C399.437 73.0364 399.422 72.9841 399.422 72.9307C399.422 72.8772 399.437 72.8249 399.466 72.78C399.504 72.7323 399.557 72.7003 399.617 72.6899C399.677 72.6796 399.738 72.6918 399.79 72.7242L400.136 72.9362C407.761 71.965 415.363 71.1054 422.966 69.989C424.752 69.7322 436.217 68.2809 435.246 72.1548C434.654 74.555 430.133 75.8388 428.135 76.5422C424.932 77.6595 421.578 78.2806 418.188 78.3842V78.3842Z" fill="#8AD0EA"/>
<path d="M427.599 73.8969C428.169 73.562 428.716 73.082 428.113 72.4903C426.997 71.3739 421.593 72.1777 420.086 72.3228C413.89 72.9145 407.806 72.948 401.61 72.9815H400.025L399.5 72.7582C399.468 72.8021 399.451 72.8548 399.451 72.9089C399.451 72.9631 399.468 73.0158 399.5 73.0597H399.668L400.371 73.3499C404.157 74.8701 408.157 75.7928 412.227 76.085C414.801 76.2638 417.386 76.174 419.941 75.8171C422.263 75.538 425.534 75.1584 427.599 73.8969ZM400.739 73.2606L400.393 73.1378H401.041C405.842 73.4113 410.656 73.3778 415.453 73.0373C417.887 72.8364 420.298 72.4903 422.732 72.3898C423.759 72.3898 426.673 72.1219 427.331 72.814C427.99 73.5062 426.896 73.7741 426.293 74.0086C425.69 74.243 425.032 74.3882 424.619 74.4998C416.728 76.6236 408.367 76.1897 400.739 73.2606V73.2606Z" fill="white"/>
<path d="M383.825 78.1162L383.557 76.9999L386.403 76.2072C390.233 75.0909 394.062 73.9745 397.857 72.7688C400.034 72.0878 402.178 71.3733 404.288 70.536L404.5 70.469C404.667 70.3909 404.846 70.3351 405.025 70.2681L405.572 70.0448C410.349 68.3187 414.825 65.851 418.834 62.7325C420.152 61.6161 421.435 60.4997 422.686 59.3834C422.809 59.2717 422.92 59.1489 423.043 59.0485L423.143 58.948C423.266 58.8475 423.389 58.7247 423.512 58.6019L423.791 58.334C427.575 54.7057 431.081 50.7537 434.653 46.958C435.669 45.8417 436.696 44.7253 437.735 43.6982C437.788 43.6264 437.848 43.5592 437.913 43.4973L438.136 43.2517C442.691 38.4624 447.291 33.7066 451.7 28.8057C451.857 28.6159 452.114 28.895 451.957 29.0736C449.044 32.367 446.208 35.7719 443.35 39.1211L442.234 40.4607L440.001 43.1066C438.483 44.8593 436.964 46.6008 435.412 48.3089C431.129 53.3104 426.543 58.0452 421.681 62.4869C421.313 62.7995 420.944 63.1121 420.565 63.4247C420.185 63.7372 420.096 63.8154 419.861 63.994L419.035 64.6527C414.132 68.2336 408.638 70.9241 402.803 72.6013L401.586 72.9809L401.017 73.1707L400.715 73.26L400.325 73.3828L400.034 73.4609L398.985 73.7847C395.167 74.9011 391.327 76.0174 387.497 77.0445C386.292 77.3794 385.064 77.7478 383.825 78.1162Z" fill="#8AD0EA"/>
<path d="M445.617 27.9579C448.866 23.9724 456.167 18.0668 461.57 21.3713C462.602 21.9604 463.379 22.9093 463.754 24.0361C464.129 25.1629 464.075 26.3884 463.602 27.4779C462.486 30.2242 459.606 32.055 457.172 33.4728C450.675 37.2574 443.876 40.3944 437.646 44.6366C437.646 44.6925 437.11 44.9939 436.977 45.0944C436.843 45.1948 436.731 44.9716 436.854 44.8822L437.457 44.4692C439.701 38.8538 441.766 32.6914 445.617 27.9579Z" fill="#8AD0EA"/>
<path d="M437.635 44.6809L437.736 44.5804C439.14 43.1255 440.631 41.7573 442.201 40.4833C445.518 37.8836 448.989 35.4864 452.595 33.305C453.968 32.4454 460.789 28.4487 457.194 26.6067C455.676 25.8141 453.532 26.5286 452.07 27.0756C449.719 27.9893 447.571 29.359 445.751 31.1058C442.09 34.5442 439.801 39.0209 437.937 43.598L437.68 44.2232L437.524 44.3795C437.484 44.4112 437.451 44.4489 437.423 44.4912C437.414 44.5163 437.414 44.5441 437.423 44.5693C437.42 44.5937 437.422 44.6184 437.429 44.6419C437.436 44.6655 437.447 44.6874 437.463 44.7062C437.479 44.7251 437.498 44.7405 437.52 44.7515C437.542 44.7625 437.566 44.7689 437.591 44.7702C437.616 44.7473 437.632 44.7153 437.635 44.6809V44.6809ZM438.149 43.3078C439.709 39.5135 441.831 35.9758 444.445 32.8138C445.852 31.1944 447.497 29.7979 449.324 28.672C450.138 28.1749 450.993 27.7491 451.88 27.3994C452.538 27.1304 453.218 26.9176 453.912 26.763C455.43 26.4281 457.261 26.6291 457.63 27.4887C458.11 28.5381 457.551 29.0739 456.513 30.1233C456.161 30.4767 455.789 30.8085 455.397 31.1169C454.381 31.8872 453.298 32.5682 452.226 33.2269C450.429 34.3433 448.654 35.4596 446.912 36.643C445.729 37.4356 444.568 38.2729 443.452 39.1437C441.499 40.6365 439.653 42.2629 437.925 44.0111L438.149 43.3078Z" fill="white"/>
<path d="M14.7944 39.1884C17.8198 41.9793 20.6666 44.9712 23.4687 47.9966C25.0651 49.7046 26.6281 51.4351 28.2356 53.1543C29.9884 55.041 31.6518 57.1398 34.119 58.0664C34.2259 58.1142 34.327 58.1742 34.4204 58.245V58.245C34.4375 58.2978 34.4396 58.3543 34.4267 58.4083C34.4137 58.4623 34.386 58.5116 34.3467 58.5509C34.3075 58.5901 34.2581 58.6178 34.2042 58.6308C34.1502 58.6438 34.0936 58.6416 34.0408 58.6245L33.8734 58.5687H33.8399C33.0774 58.4832 32.3278 58.3071 31.6071 58.044C29.5757 57.5658 27.574 56.9695 25.6121 56.2578C21.5796 54.8332 17.7396 52.9132 14.1804 50.5419C11.0093 48.4019 8.13401 45.8532 5.62893 42.9617C3.63061 40.6397 0.627549 37.2124 0.0470311 34.0865C-0.45534 31.2509 3.19523 31.8537 4.88096 32.3114C8.72131 33.4613 11.9142 36.5425 14.7944 39.1884Z" fill="#8AD0EA"/>
<path d="M5.59563 37.1114C4.72485 38.3282 8.01817 42.0123 9.40248 43.6645C11.5918 46.2469 14.0844 48.5558 16.8264 50.5414C21.7854 54.0443 27.2994 56.6862 33.1367 58.3561L33.8401 58.5682H33.907L34.0633 58.624C34.1165 58.6397 34.1729 58.641 34.2267 58.6277C34.2805 58.6144 34.3299 58.5871 34.3696 58.5484C34.4094 58.5098 34.4382 58.4613 34.453 58.4079C34.4678 58.3544 34.4682 58.2981 34.4541 58.2445C33.9852 58.0324 33.5386 57.7979 33.1032 57.5523C32.6678 57.3067 32.2994 57.1169 31.9199 56.8825C27.7 54.3595 24.0382 50.8763 20.4435 47.5495C16.2236 43.6868 6.75666 35.5149 5.59563 37.1114ZM32.545 57.7086C33.1256 58.0323 33.7284 58.3226 34.3201 58.6017C33.8512 58.4454 33.3712 58.3003 32.9023 58.1328C27.8065 56.5219 22.9512 54.2313 18.4675 51.3229C15.9564 49.6484 13.6289 47.7138 11.5236 45.5512C10.3998 44.3927 9.34843 43.1661 8.37541 41.8783C7.97351 41.3313 5.31653 38.1049 6.01985 37.4686C6.51106 37.0221 9.55878 39.0092 9.62576 39.0427C10.2286 39.4334 10.8314 39.8577 11.412 40.293C12.6288 41.1862 13.7899 42.1462 14.9286 43.1175C17.4069 45.2274 19.7625 47.4937 22.1627 49.693C25.3014 52.758 28.7855 55.4478 32.545 57.7086V57.7086Z" fill="white"/>
<path d="M37.6581 26.6401C40.4156 31.9764 41.0073 38.1165 41.1412 44.0333C41.1412 47.2038 41.0743 50.3743 41.0408 53.5448C40.8584 56.376 40.9594 59.2183 41.3422 62.0293C41.3422 62.1521 41.3422 62.275 41.4203 62.3978C41.5813 63.1688 41.8323 63.9182 42.1683 64.6305C42.1794 64.6551 42.1851 64.6817 42.1851 64.7086C42.1851 64.7356 42.1794 64.7622 42.1683 64.7868L42.3023 64.9989L42.2241 65.0659L42.0232 64.8873C41.9851 64.8919 41.9466 64.8834 41.9141 64.863C41.8816 64.8427 41.8571 64.8119 41.8446 64.7756V64.6863L41.6548 64.5077C37.0218 60.2431 34.4318 53.009 32.7237 47.2038C31.0157 41.3986 30.1449 35.225 31.6743 29.3417C32.0651 27.8569 32.7237 24.318 34.5211 23.8156C36.3185 23.3133 37.0776 25.5126 37.6581 26.6401Z" fill="#8AD0EA"/>
<path d="M35.212 30.1117C33.3923 30.4131 33.783 35.4033 33.8388 36.6202C34.078 40.3014 34.6383 43.9547 35.5134 47.5384C36.6399 53.4014 38.6778 59.0518 41.553 64.2841V64.2841L41.62 64.4962L41.8098 64.6748C41.8038 64.7043 41.8038 64.7347 41.8098 64.7641C41.8239 64.7993 41.8488 64.829 41.8809 64.8491C41.913 64.8691 41.9506 64.8785 41.9884 64.8758L41.9214 64.5967C41.7205 63.8599 41.553 63.1231 41.3967 62.3639C41.3967 62.2411 41.3409 62.1183 41.3186 61.9955C40.437 56.7931 39.8962 51.5386 39.6998 46.2657C39.4868 42.5942 38.9336 38.9504 38.0476 35.381C37.8243 34.5102 36.7414 29.8437 35.212 30.1117ZM36.8419 32.7463C39.3314 38.4957 39.2533 45.3391 39.6663 51.4792C39.846 55.6188 40.4255 59.7313 41.3967 63.7594C38.9637 58.919 37.1879 53.7754 36.1162 48.465C35.3962 45.4697 34.8483 42.4356 34.4752 39.3776C34.2534 37.7202 34.1601 36.0481 34.1961 34.3763C34.2075 33.3714 34.3349 32.3712 34.5756 31.3955C35.2008 29.6428 36.4177 31.7528 36.8419 32.7352V32.7463Z" fill="white"/>
<path d="M52.0258 72.7687C52.0522 72.8166 52.066 72.8703 52.066 72.925C52.066 72.9797 52.0522 73.0334 52.0258 73.0813H52.1486C52.1612 73.0797 52.1741 73.0808 52.1862 73.0846C52.1984 73.0883 52.2096 73.0947 52.2191 73.1031C52.2286 73.1116 52.2362 73.122 52.2414 73.1336C52.2466 73.1453 52.2492 73.1579 52.2491 73.1706C52.2524 73.1831 52.2529 73.1962 52.2506 73.209C52.2483 73.2218 52.2433 73.2339 52.2359 73.2445C52.2284 73.2552 52.2188 73.264 52.2076 73.2705C52.1964 73.277 52.1839 73.2811 52.1709 73.2822C45.0373 74.3986 37.0998 74.7335 30.0778 72.8134C27.1038 72.0296 24.279 70.7624 21.7161 69.0623C19.9745 67.879 16.4579 65.5122 16.257 63.1567C15.8662 58.4232 28.4144 63.3353 30.301 64.0832C33.7395 65.4341 37.0663 67.0863 40.4713 68.5488C44.2112 70.1005 48.0627 71.3844 51.903 72.6682C51.9525 72.6897 51.995 72.7244 52.0258 72.7687V72.7687Z" fill="#8AD0EA"/>
<path d="M52.0146 72.7571C51.635 72.7571 51.2554 72.6901 50.8982 72.6455C44.6568 71.9468 38.5605 70.2899 32.824 67.7334C29.981 66.368 27.0268 65.2475 23.9934 64.3843C23.2343 64.2056 20.4433 63.2679 20.8899 65.1099C21.1243 66.0365 25.7238 68.6935 26.9742 69.274C29.8479 70.5894 32.8742 71.5419 35.9833 72.1096C41.1809 73.1456 46.4885 73.5207 51.7801 73.226H52.2379C52.238 73.2132 52.2353 73.2006 52.2302 73.189C52.225 73.1774 52.2174 73.167 52.2079 73.1585C52.1984 73.1501 52.1871 73.1438 52.175 73.14C52.1628 73.1362 52.15 73.1351 52.1374 73.1367H52.0257C52.0625 73.0797 52.0811 73.0129 52.0791 72.9451C52.0772 72.8774 52.0546 72.8118 52.0146 72.7571V72.7571ZM38.618 72.2101C35.512 71.7847 32.459 71.0364 29.5083 69.9773C28.3413 69.5417 27.2007 69.0385 26.0922 68.4702C25.2117 68.0264 24.3647 67.5189 23.558 66.9519C21.6267 65.5453 21.236 65.0317 21.4034 64.6522C21.5709 64.2726 21.917 64.2949 23.4799 64.5517C24.4913 64.7426 25.482 65.0305 26.4383 65.4113C27.7891 65.9248 29.1399 66.5277 30.4684 67.0747C33.1477 68.1911 35.8047 69.4191 38.5622 70.368C42.5017 71.7567 46.6091 72.6127 50.7754 72.9134C46.7067 73.0189 42.6363 72.7837 38.6068 72.2101H38.618Z" fill="white"/>
<path d="M51.2772 52.2605C52.9725 54.2025 54.229 56.4872 54.9612 58.9588C56.5912 63.815 57.194 68.9504 58.4443 73.9071C58.6453 74.644 58.8462 75.3808 59.0807 76.1399C59.0807 76.2181 59.5942 77.033 59.5384 76.9883C59.4826 76.9437 59.2816 76.7316 58.8909 76.3297C56.9596 74.2979 51.2102 68.0685 49.0109 63.8485C47.5652 61.2361 46.4407 58.4585 45.6618 55.5762C45.3492 54.203 44.7687 51.1106 46.1307 50.0501C47.4927 48.9895 50.3506 51.3227 51.2772 52.2605Z" fill="#8AD0EA"/>
<path d="M48.3533 53.4661C46.4443 54.2587 50.3963 62.6539 50.8875 63.7591C52.733 67.8471 55.1009 71.6784 57.9319 75.1574C58.2445 75.5481 58.5682 75.9388 58.892 76.2737L59.5283 76.9436C59.3902 76.6532 59.2374 76.37 59.0706 76.0951C59.0706 75.9723 59.0036 75.8383 58.9589 75.7155C58.7803 75.1015 58.6017 74.4875 58.4566 73.8958C57.1951 70.5467 56.0005 67.1975 54.672 63.9377C53.7418 61.5522 52.6219 59.245 51.3229 57.0385C51.0326 56.5919 49.1906 53.1089 48.3533 53.4661ZM49.9163 55.1965C54.192 61.3366 55.7438 68.7158 58.5682 75.5257C58.5682 75.6374 58.6575 75.7379 58.7022 75.8607C58.5905 75.7044 58.4566 75.5593 58.3449 75.403C56.0723 72.4799 54.0765 69.3517 52.3835 66.0589C51.3637 64.0453 50.4652 61.9726 49.693 59.8518C49.2167 58.7076 48.8176 57.5327 48.4985 56.3352C48.3868 55.8105 48.13 54.348 48.4985 54.1694C48.8669 53.9908 49.6372 54.7946 49.9163 55.1965Z" fill="white"/>
<path d="M14.2359 4.07785C20.9342 15.3086 17.5851 29.7546 23.5019 41.2868V41.3426C23.6805 41.6999 23.8703 42.046 24.0712 42.392C24.0924 42.4261 24.1044 42.4649 24.1063 42.5049C24.1081 42.5449 24.0997 42.5847 24.0818 42.6206C24.0638 42.6564 24.0371 42.687 24.0039 42.7096C23.9708 42.7321 23.9325 42.7458 23.8926 42.7493C23.8572 42.7556 23.8207 42.7502 23.7885 42.7342C23.7563 42.7181 23.7302 42.6921 23.714 42.66L23.58 42.4032C18.2437 37.4465 13.9233 30.7147 10.7416 24.2062C7.98418 18.5461 6.16448 12.1828 7.1134 5.86407C7.33668 4.30113 7.69392 1.18643 9.5806 0.594748C11.4673 0.00306678 13.4098 2.68237 14.2359 4.07785Z" fill="#8AD0EA"/>
<path d="M11.9237 8.19721C11.1311 8.45397 11.0306 9.62618 10.9413 10.2625C10.7126 11.8526 10.6788 13.4647 10.8408 15.0629C11.1771 18.3232 12.0012 21.5145 13.2857 24.5299C15.3161 29.79 17.9857 34.7805 21.2343 39.3889C21.9823 40.416 22.7749 41.4095 23.6122 42.3585C23.7127 42.4813 23.8243 42.5929 23.9248 42.7045C23.9634 42.6984 23.9999 42.6832 24.0314 42.6601C24.0629 42.637 24.0885 42.6067 24.1059 42.5718C24.1234 42.5369 24.1323 42.4983 24.1318 42.4593C24.1314 42.4202 24.1217 42.3818 24.1034 42.3473C23.9025 42.0124 23.735 41.6886 23.5452 41.3425C23.5372 41.3095 23.5372 41.2751 23.5452 41.2421C22.1841 39.0219 21.0436 36.6737 20.1403 34.2312C18.8884 30.3773 17.8853 26.447 17.1372 22.4645C16.7577 20.9574 14.6254 7.3041 11.9237 8.19721ZM13.6988 10.4969C15.0719 13.433 15.5073 16.771 16.2106 19.9192C16.9139 23.0674 17.5949 26.2714 18.3429 29.4308C18.9444 31.9535 19.7547 34.4217 20.7655 36.81C21.6029 38.7982 22.6231 40.7042 23.8132 42.5036C22.4683 40.8657 21.2303 39.1429 20.1068 37.3459V37.2789C18.1469 34.0597 16.3871 30.7229 14.8375 27.2873C14.8237 27.2408 14.805 27.1959 14.7817 27.1534C13.3367 24.1615 12.2608 21.005 11.5776 17.7534C11.2242 15.9826 11.0706 14.1776 11.1199 12.3725C11.2204 10.3295 11.5107 8.68842 12.2363 8.65493C12.6494 8.61027 13.2969 9.62617 13.6988 10.4969Z" fill="white"/>
<path d="M15.0734 27.109C16.9154 30.3576 18.8356 33.5728 20.7669 36.7768C21.6749 38.2653 22.5866 39.7538 23.5021 41.2423C23.494 41.2754 23.494 41.3098 23.5021 41.3428L24.4845 42.9727C27.4541 47.8736 30.3901 53.0202 34.13 57.4076C36.1361 59.6936 38.3485 61.79 40.739 63.6704C40.9957 63.8602 41.2413 64.0612 41.487 64.2621L41.9 64.5747L42.1345 64.7421C44.2109 66.3497 46.3879 67.8569 48.509 69.3193C51.4562 71.3511 54.5263 73.1708 57.6187 74.9012C57.6996 74.9695 57.7898 75.0258 57.8866 75.0687L58.2996 75.3143L58.5229 75.4371L58.9137 75.6715C59.9072 76.2409 60.9008 76.7879 61.8832 77.4131L61.258 78.3062C58.0107 76.8477 54.8762 75.1498 51.8805 73.2266C51.8167 73.1922 51.7568 73.151 51.7018 73.1039C51.4004 72.9364 51.1102 72.7466 50.8199 72.5568L49.7035 71.8535C48.8551 71.2953 48.0066 70.7371 47.1805 70.1566C42.1913 66.9359 37.6009 63.1362 33.5048 58.8365L33.1811 58.4681L33.0471 58.3118L32.8127 58.0439L32.4554 57.6197L31.8303 56.8382L31.6516 56.6038C28.5661 52.3338 25.7761 47.8578 23.3011 43.2072C22.8322 42.3811 22.3745 41.5549 21.9168 40.7288L21.1465 39.3445L20.0301 37.2234V37.1564C18.2551 33.8073 16.5582 30.4581 14.7608 27.1648C14.7273 27.0978 14.9841 26.9527 15.0734 27.109Z" fill="#8AD0EA"/>
</svg>
