<svg width="768" height="686" viewBox="0 0 768 686" fill="none" xmlns="http://www.w3.org/2000/svg">
<circle opacity="0.5" r="55.3351" transform="matrix(0.0479355 -0.99885 -0.99885 -0.0479355 347.52 95.2898)" fill="#8AD0EA"/>
<circle opacity="0.5" r="55.3351" transform="matrix(0.0479355 -0.99885 -0.99885 -0.0479355 514.637 268.589)" fill="#8AD0EA"/>
<path opacity="0.5" d="M512.706 486.8C523.801 497.572 524.139 515.409 512.411 525.488C457.633 572.561 387.852 599.223 315.049 600.302C232.874 601.519 153.58 570.043 94.612 512.798C35.644 455.552 1.83197 377.226 0.614061 295.051C-0.464935 222.248 24.1173 151.708 69.5458 95.5587C79.2724 83.5368 97.1125 83.346 108.208 94.1174L139.503 124.498C150.598 135.269 150.684 152.902 141.481 165.33C114.186 202.188 99.5316 247.205 100.219 293.575C101.045 349.333 123.988 402.48 163.999 441.323C204.011 480.166 257.814 501.523 313.573 500.697C359.942 500.009 404.506 484.027 440.538 455.652C452.688 446.085 470.315 445.648 481.411 456.42L512.706 486.8Z" fill="#8AD0EA"/>
</svg>
